<svg id="e0f5lczugurn1" xmlns="http://www.w3.org/2000/svg" xmlns:xlink="http://www.w3.org/1999/xlink" viewBox="0 0 200 200" shape-rendering="geometricPrecision" text-rendering="geometricPrecision"><style><![CDATA[#e0f5lczugurn6 {animation: e0f5lczugurn6_c_o 3000ms linear 1 normal forwards}@keyframes e0f5lczugurn6_c_o { 0% {opacity: 0} 33.333333% {opacity: 0} 46.666667% {opacity: 1} 66.666667% {opacity: 1} 100% {opacity: 1} }#e0f5lczugurn22_ts {animation: e0f5lczugurn22_ts__ts 3000ms linear 1 normal forwards}@keyframes e0f5lczugurn22_ts__ts { 0% {transform: translate(289.639992px,301.065002px) scale(0,0)} 10% {transform: translate(289.639992px,301.065002px) scale(1,1)} 13.333333% {transform: translate(289.639992px,301.065002px) scale(0.900000,0.900000)} 16.666667% {transform: translate(289.639992px,301.065002px) scale(1,1)} 100% {transform: translate(289.639992px,301.065002px) scale(1,1)} }#e0f5lczugurn24_to {animation: e0f5lczugurn24_to__to 3000ms linear 1 normal forwards}@keyframes e0f5lczugurn24_to__to { 0% {transform: translate(289.760010px,375.455002px)} 3.333333% {transform: translate(289.760010px,375.455002px)} 23.333333% {transform: translate(289.760010px,311.455002px)} 26.666667% {transform: translate(289.760010px,315.455002px)} 100% {transform: translate(289.760010px,315.455002px)} }]]></style><defs><path id="e0f5lczugurn2" d="M325.340000,301.060000C325.340000,320.780000,309.360000,336.760000,289.640000,336.760000C269.930000,336.760000,253.940000,320.780000,253.940000,301.060000C253.940000,281.350000,269.920000,265.370000,289.640000,265.370000C309.360000,265.370000,325.340000,281.350000,325.340000,301.060000Z"/></defs><g id="e0f5lczugurn3" transform="matrix(1 0 0 1 -189.63000487999989 -217.71667480999986)"><g id="e0f5lczugurn4"><g id="e0f5lczugurn5"><g id="e0f5lczugurn6" opacity="0"><path id="e0f5lczugurn7" d="M200.730000,351.270000L196.600000,351.270000L196.600000,349.310000L207.170000,349.310000L207.170000,351.270000L203.040000,351.270000L203.040000,361.770000L200.730000,361.770000L200.730000,351.270000Z" fill="rgb(71,71,71)" stroke="none" stroke-width="1"/><path id="e0f5lczugurn8" d="M218.640000,361.770000L216.090000,358.120000C215.930000,358.140000,215.770000,358.140000,215.610000,358.140000L212.800000,358.140000L212.800000,361.770000L210.490000,361.770000L210.490000,349.310000L215.620000,349.310000C218.890000,349.310000,220.920000,350.980000,220.920000,353.740000C220.920000,355.630000,219.960000,357.020000,218.270000,357.670000L221.140000,361.760000L218.640000,361.760000ZM215.500000,351.270000L212.790000,351.270000L212.790000,356.240000L215.500000,356.240000C217.530000,356.240000,218.580000,355.310000,218.580000,353.750000C218.580000,352.170000,217.530000,351.270000,215.500000,351.270000Z" fill="rgb(71,71,71)" stroke="none" stroke-width="1"/><path id="e0f5lczugurn9" d="M233.740000,358.880000L227.510000,358.880000L226.280000,361.760000L223.890000,361.760000L229.500000,349.300000L231.780000,349.300000L237.410000,361.760000L234.990000,361.760000L233.740000,358.880000ZM232.970000,357.070000L230.620000,351.620000L228.290000,357.070000L232.970000,357.070000Z" fill="rgb(71,71,71)" stroke="none" stroke-width="1"/><path id="e0f5lczugurn10" d="M251.010000,349.310000L245.580000,361.770000L243.300000,361.770000L237.850000,349.310000L240.360000,349.310000L244.510000,358.920000L248.690000,349.310000L251.010000,349.310000Z" fill="rgb(71,71,71)" stroke="none" stroke-width="1"/><path id="e0f5lczugurn11" d="M263.590000,359.830000L263.590000,361.770000L254.240000,361.770000L254.240000,349.310000L263.340000,349.310000L263.340000,351.250000L256.560000,351.250000L256.560000,354.490000L262.580000,354.490000L262.580000,356.390000L256.560000,356.390000L256.560000,359.830000L263.590000,359.830000Z" fill="rgb(71,71,71)" stroke="none" stroke-width="1"/><path id="e0f5lczugurn12" d="M267.730000,349.310000L270.040000,349.310000L270.040000,359.810000L276.550000,359.810000L276.550000,361.770000L267.720000,361.770000L267.720000,349.310000Z" fill="rgb(71,71,71)" stroke="none" stroke-width="1"/><path id="e0f5lczugurn13" d="M297.640000,358.440000C297.640000,360.560000,296.070000,361.770000,292.960000,361.770000L287.230000,361.770000L287.230000,349.310000L292.610000,349.310000C295.390000,349.310000,296.990000,350.480000,296.990000,352.510000C296.990000,353.930000,296.230000,354.880000,295.090000,355.340000C296.680000,355.700000,297.640000,356.750000,297.640000,358.440000ZM288.540000,350.390000L288.540000,354.910000L292.510000,354.910000C294.500000,354.910000,295.660000,354.150000,295.660000,352.650000C295.660000,351.150000,294.500000,350.390000,292.510000,350.390000L288.540000,350.390000ZM296.320000,358.330000C296.320000,356.710000,295.130000,356,292.940000,356L288.540000,356L288.540000,360.680000L292.940000,360.680000C295.130000,360.680000,296.320000,359.970000,296.320000,358.330000Z" fill="rgb(71,71,71)" stroke="none" stroke-width="1"/><path id="e0f5lczugurn14" d="M301.110000,355.540000C301.110000,351.910000,303.890000,349.200000,307.660000,349.200000C311.400000,349.200000,314.190000,351.890000,314.190000,355.540000C314.190000,359.190000,311.390000,361.880000,307.660000,361.880000C303.880000,361.880000,301.110000,359.170000,301.110000,355.540000ZM312.870000,355.540000C312.870000,352.570000,310.640000,350.380000,307.650000,350.380000C304.640000,350.380000,302.400000,352.570000,302.400000,355.540000C302.400000,358.510000,304.640000,360.700000,307.650000,360.700000C310.650000,360.700000,312.870000,358.510000,312.870000,355.540000Z" fill="rgb(71,71,71)" stroke="none" stroke-width="1"/><path id="e0f5lczugurn15" d="M317.700000,355.540000C317.700000,351.910000,320.480000,349.200000,324.250000,349.200000C327.990000,349.200000,330.780000,351.890000,330.780000,355.540000C330.780000,359.190000,327.980000,361.880000,324.250000,361.880000C320.480000,361.880000,317.700000,359.170000,317.700000,355.540000ZM329.470000,355.540000C329.470000,352.570000,327.240000,350.380000,324.250000,350.380000C321.240000,350.380000,319,352.570000,319,355.540000C319,358.510000,321.240000,360.700000,324.250000,360.700000C327.240000,360.700000,329.470000,358.510000,329.470000,355.540000Z" fill="rgb(71,71,71)" stroke="none" stroke-width="1"/><path id="e0f5lczugurn16" d="M334.080000,360.260000L334.600000,359.250000C335.490000,360.120000,337.070000,360.760000,338.710000,360.760000C341.040000,360.760000,342.060000,359.780000,342.060000,358.550000C342.060000,355.130000,334.390000,357.230000,334.390000,352.620000C334.390000,350.790000,335.810000,349.200000,338.980000,349.200000C340.390000,349.200000,341.850000,349.610000,342.840000,350.300000L342.400000,351.350000C341.330000,350.660000,340.090000,350.320000,338.980000,350.320000C336.700000,350.320000,335.690000,351.330000,335.690000,352.580000C335.690000,356,343.360000,353.930000,343.360000,358.470000C343.360000,360.300000,341.900000,361.870000,338.710000,361.870000C336.840000,361.880000,335,361.220000,334.080000,360.260000Z" fill="rgb(71,71,71)" stroke="none" stroke-width="1"/><path id="e0f5lczugurn17" d="M350.500000,350.450000L346.120000,350.450000L346.120000,349.310000L356.190000,349.310000L356.190000,350.450000L351.810000,350.450000L351.810000,361.770000L350.490000,361.770000L350.490000,350.450000Z" fill="rgb(71,71,71)" stroke="none" stroke-width="1"/><path id="e0f5lczugurn18" d="M368.630000,360.630000L368.630000,361.770000L359.820000,361.770000L359.820000,349.310000L368.360000,349.310000L368.360000,350.450000L361.130000,350.450000L361.130000,354.880000L367.570000,354.880000L367.570000,356L361.130000,356L361.130000,360.630000L368.630000,360.630000Z" fill="rgb(71,71,71)" stroke="none" stroke-width="1"/><path id="e0f5lczugurn19" d="M381.240000,361.770000L378.390000,357.770000C378.070000,357.810000,377.750000,357.820000,377.390000,357.820000L374.040000,357.820000L374.040000,361.770000L372.720000,361.770000L372.720000,349.310000L377.380000,349.310000C380.550000,349.310000,382.470000,350.910000,382.470000,353.580000C382.470000,355.540000,381.440000,356.910000,379.620000,357.500000L382.660000,361.770000L381.240000,361.770000ZM381.170000,353.580000C381.170000,351.590000,379.850000,350.450000,377.360000,350.450000L374.050000,350.450000L374.050000,356.700000L377.360000,356.700000C379.850000,356.700000,381.170000,355.540000,381.170000,353.580000Z" fill="rgb(71,71,71)" stroke="none" stroke-width="1"/></g></g></g><g id="e0f5lczugurn20"><g id="e0f5lczugurn21" clip-path="url(#e0f5lczugurn30)"><g id="e0f5lczugurn22_ts" transform="translate(289.639992,301.065002) scale(0,0)"><path id="e0f5lczugurn22" d="M325.340000,301.060000C325.340000,320.780000,309.360000,336.760000,289.640000,336.760000C269.930000,336.760000,253.940000,320.780000,253.940000,301.060000C253.940000,281.350000,269.920000,265.370000,289.640000,265.370000C309.360000,265.370000,325.340000,281.350000,325.340000,301.060000Z" transform="translate(-289.639992,-301.065002)" fill="rgb(134,133,239)" stroke="none" stroke-width="1"/></g><path id="e0f5lczugurn23" d="M325.340000,301.060000C325.340000,320.780000,309.360000,336.760000,289.640000,336.760000C269.930000,336.760000,253.940000,320.780000,253.940000,301.060000C253.940000,281.350000,269.920000,265.370000,289.640000,265.370000C309.360000,265.370000,325.340000,281.350000,325.340000,301.060000Z" transform="matrix(0 0 0 0 289.63999176025391 301.06500244140625)" fill="rgb(14,112,161)" stroke="none" stroke-width="1"/><g id="e0f5lczugurn24_to" transform="translate(289.760010,375.455002)"><g id="e0f5lczugurn24" transform="translate(-289.760010,-315.455002)"><polygon id="e0f5lczugurn25" points="312.080000,311.470000 289.760000,278.180000 267.440000,311.470000 245.880000,352.730000 289.760000,341.980000 333.640000,352.730000" opacity="0.2" fill="rgb(3,31,40)" stroke="none" stroke-width="1"/><polygon id="e0f5lczugurn26" points="289.760000,318.540000 284.500000,308.420000 289.760000,278.180000" fill="rgb(197,197,255)" stroke="none" stroke-width="1"/><polygon id="e0f5lczugurn27" points="267.440000,311.470000 289.760000,278.180000 284.500000,308.420000" fill="rgb(248,248,255)" stroke="none" stroke-width="1"/><polygon id="e0f5lczugurn28" points="289.760000,318.540000 295.020000,308.420000 289.760000,278.180000" fill="rgb(223,223,255)" stroke="none" stroke-width="1"/><polygon id="e0f5lczugurn29" points="312.080000,311.470000 289.760000,278.180000 295.020000,308.420000" fill="rgb(248,248,255)" stroke="none" stroke-width="1"/></g></g><clipPath id="e0f5lczugurn30"><use id="e0f5lczugurn31" width="71.400009" height="71.390015" xlink:href="#e0f5lczugurn2" fill="rgb(0,0,0)" stroke="none" stroke-width="1"/></clipPath></g></g><g id="e0f5lczugurn32" transform="matrix(1 0 0 1 -166.84500366000009 -162.34968000000003)"><g id="e0f5lczugurn33"><g id="e0f5lczugurn34" clip-path="url(#e0f5lczugurn35)"><clipPath id="e0f5lczugurn35"/></g></g></g></g></svg>